<svg xmlns="http://www.w3.org/2000/svg" viewBox="0 0 512 512"><defs><style>.cls-1{fill:#54bbe2;}.cls-2{fill:#fff;}</style></defs><g id="Layer_2" data-name="Layer 2"><g id="Layer_1-2" data-name="Layer 1"><rect class="cls-1" width="512" height="512"/><path class="cls-2" d="M256,102.86c-73.36,0-133.08,59.67-133.08,133a132,132,0,0,0,16.35,63.84c1.22-.05,2.38-.05,3.54-.05,4.66,0,9.22.1,13.59.29a118.52,118.52,0,1,1,199.2,0c4.37-.19,8.93-.29,13.58-.29,1.17,0,2.38,0,3.59.05a132.44,132.44,0,0,0,16.31-63.84C389.08,162.53,329.4,102.86,256,102.86Z"/><path class="cls-2" d="M256,361.71H243.13c-6.36,0-4.66-4.25-4.66-4.25l-135.85-27,.11-2.47,5.66.95-3.09-11.6a.73.73,0,0,1,.58-1c84.9-9.2,130,14.72,144.67,24.69a9.64,9.64,0,0,0,10.9,0c14.68-10,59.77-33.89,144.67-24.69a.73.73,0,0,1,.58,1l-3.09,11.6,5.66-.95.11,2.47-135.85,27s1.7,4.25-4.66,4.25Z"/><path class="cls-2" d="M294.58,197.25H267.52V168.16a9.54,9.54,0,0,0-9.54-9.54h-4a9.54,9.54,0,0,0-9.54,9.54v29.09H217.42a9.54,9.54,0,0,0-9.54,9.54v4a9.54,9.54,0,0,0,9.54,9.53h27.06v85.56a9.54,9.54,0,0,0,9.54,9.54h4a9.54,9.54,0,0,0,9.54-9.54V220.28h27.06a9.54,9.54,0,0,0,9.54-9.53v-4A9.54,9.54,0,0,0,294.58,197.25Z"/><path class="cls-2" d="M128,380.27h-7.51V405a4.51,4.51,0,0,1-.95,3.16,3.17,3.17,0,0,1-2.45,1,3.24,3.24,0,0,1-2.49-1,4.53,4.53,0,0,1-1-3.15V380.27h-7.5a3.78,3.78,0,0,1-2.62-.77,2.89,2.89,0,0,1,0-4.14,3.89,3.89,0,0,1,2.59-.76H128a3.82,3.82,0,0,1,2.65.79,2.64,2.64,0,0,1,.87,2.06,2.59,2.59,0,0,1-.88,2.05A3.89,3.89,0,0,1,128,380.27Z"/><path class="cls-2" d="M142.5,378.19v9.73h14.85v-9.73a4.54,4.54,0,0,1,.94-3.13,3.15,3.15,0,0,1,2.46-1,3.27,3.27,0,0,1,2.52,1,4.47,4.47,0,0,1,1,3.14V405a4.53,4.53,0,0,1-1,3.15,3.3,3.3,0,0,1-2.51,1,3.15,3.15,0,0,1-2.48-1.05,4.67,4.67,0,0,1-.92-3.14V393.53H142.5V405a4.49,4.49,0,0,1-1,3.15,3.28,3.28,0,0,1-2.5,1,3.15,3.15,0,0,1-2.48-1.05,4.62,4.62,0,0,1-.92-3.14V378.19a4.64,4.64,0,0,1,.91-3.13,3.16,3.16,0,0,1,2.49-1,3.25,3.25,0,0,1,2.51,1A4.42,4.42,0,0,1,142.5,378.19Z"/><path class="cls-2" d="M194,379.9H178.5v8.34h14.27a3.39,3.39,0,0,1,2.35.71,2.39,2.39,0,0,1,.78,1.87,2.46,2.46,0,0,1-.76,1.88,3.31,3.31,0,0,1-2.37.73H178.5v9.66h16a3.54,3.54,0,0,1,2.45.76,2.57,2.57,0,0,1,.82,2,2.52,2.52,0,0,1-.82,2,3.54,3.54,0,0,1-2.45.75H175.84a3.59,3.59,0,0,1-4.22-4.21V378.81a5.82,5.82,0,0,1,.44-2.42,2.69,2.69,0,0,1,1.38-1.36,5.7,5.7,0,0,1,2.4-.43H194a3.49,3.49,0,0,1,2.44.73,2.43,2.43,0,0,1,.8,1.91,2.46,2.46,0,0,1-.8,1.93A3.49,3.49,0,0,1,194,379.9Z"/><path class="cls-2" d="M246.15,394.75v6.51a6.89,6.89,0,0,1-.25,2.08,3.25,3.25,0,0,1-.94,1.4,8.6,8.6,0,0,1-1.75,1.2,27.08,27.08,0,0,1-5.93,2.44,23.91,23.91,0,0,1-6.21.76,20.34,20.34,0,0,1-7.14-1.2,15.2,15.2,0,0,1-5.49-3.5,15.46,15.46,0,0,1-3.48-5.56,20.82,20.82,0,0,1-1.22-7.3,21.25,21.25,0,0,1,1.18-7.25,14.89,14.89,0,0,1,3.48-5.59,15.52,15.52,0,0,1,5.58-3.51,21.42,21.42,0,0,1,7.46-1.21,18.49,18.49,0,0,1,6.07.91,13.36,13.36,0,0,1,4.29,2.31,10.56,10.56,0,0,1,2.48,2.94,6,6,0,0,1,.83,2.76,3,3,0,0,1-1,2.21,3.23,3.23,0,0,1-2.31.92,3.1,3.1,0,0,1-1.42-.35,3.26,3.26,0,0,1-1.15-1,28.64,28.64,0,0,0-2.15-3,6.91,6.91,0,0,0-2.38-1.71,9.07,9.07,0,0,0-3.81-.7,10.48,10.48,0,0,0-4.26.83,8.76,8.76,0,0,0-3.21,2.38,10.75,10.75,0,0,0-2,3.84,16.87,16.87,0,0,0-.71,5q0,6,2.75,9.2a9.51,9.51,0,0,0,7.66,3.22,15.85,15.85,0,0,0,4.48-.62,22.46,22.46,0,0,0,4.25-1.79v-5.51h-5.33a5.82,5.82,0,0,1-2.91-.58,2.11,2.11,0,0,1-1-2,2.42,2.42,0,0,1,.82-1.88,3.25,3.25,0,0,1,2.24-.74h7.81a10,10,0,0,1,2.43.26,2.78,2.78,0,0,1,1.61,1.13A4.64,4.64,0,0,1,246.15,394.75Z"/><path class="cls-2" d="M267.65,374a18.08,18.08,0,0,1,9.07,2.14,13.91,13.91,0,0,1,5.74,6.09,20.76,20.76,0,0,1,1.94,9.28,22.67,22.67,0,0,1-1.06,7.16,15.54,15.54,0,0,1-3.2,5.59,13.94,13.94,0,0,1-5.23,3.61,20.7,20.7,0,0,1-14.25,0,14.16,14.16,0,0,1-5.26-3.63,15.48,15.48,0,0,1-3.19-5.63,22.64,22.64,0,0,1-1.08-7.11,21.89,21.89,0,0,1,1.13-7.18,15.46,15.46,0,0,1,3.25-5.57,14.28,14.28,0,0,1,5.19-3.51A18.72,18.72,0,0,1,267.65,374Zm9.78,17.47a16,16,0,0,0-1.2-6.47,9,9,0,0,0-3.44-4.13,9.44,9.44,0,0,0-5.14-1.4,9.27,9.27,0,0,0-3.81.77,8.42,8.42,0,0,0-3,2.26,10.71,10.71,0,0,0-2,3.79,17,17,0,0,0-.73,5.18,17.4,17.4,0,0,0,.73,5.23,10.54,10.54,0,0,0,2.06,3.88,8.67,8.67,0,0,0,3.06,2.31,9.68,9.68,0,0,0,8.64-.56,9.1,9.1,0,0,0,3.52-4.07A15.81,15.81,0,0,0,277.43,391.49Z"/><path class="cls-2" d="M316.1,398.37a10,10,0,0,1-1.59,5.54,10.52,10.52,0,0,1-4.64,3.84,17.37,17.37,0,0,1-7.25,1.39,16.29,16.29,0,0,1-8.3-1.9,11,11,0,0,1-3.76-3.65,8.24,8.24,0,0,1-1.45-4.43,3,3,0,0,1,3.08-3,2.58,2.58,0,0,1,1.84.7,5.53,5.53,0,0,1,1.29,2.06,13.89,13.89,0,0,0,1.4,2.71,5.71,5.71,0,0,0,2.12,1.79,7.72,7.72,0,0,0,3.59.71,8.09,8.09,0,0,0,5-1.42,4.3,4.3,0,0,0,1.91-3.56,3.77,3.77,0,0,0-1-2.75,6.74,6.74,0,0,0-2.66-1.61c-1.09-.37-2.55-.76-4.37-1.18a32.43,32.43,0,0,1-6.13-2,10,10,0,0,1-3.92-3.13,8.14,8.14,0,0,1-1.44-4.92,8.44,8.44,0,0,1,1.53-5,9.58,9.58,0,0,1,4.42-3.35,18.11,18.11,0,0,1,6.81-1.17,17,17,0,0,1,5.41.77,11.42,11.42,0,0,1,3.79,2.07,8.46,8.46,0,0,1,2.2,2.7,6.13,6.13,0,0,1,.7,2.75,3.28,3.28,0,0,1-.87,2.22,2.79,2.79,0,0,1-2.17,1,2.49,2.49,0,0,1-1.79-.59,7.85,7.85,0,0,1-1.34-1.94,8.76,8.76,0,0,0-2.22-3,6.58,6.58,0,0,0-4.17-1.07,7.22,7.22,0,0,0-4.3,1.17,3.4,3.4,0,0,0-1.63,2.81,2.84,2.84,0,0,0,.55,1.76,4.77,4.77,0,0,0,1.53,1.28,10.74,10.74,0,0,0,2,.83c.67.2,1.76.5,3.29.88a51.79,51.79,0,0,1,5.2,1.48,15.81,15.81,0,0,1,4,2,8.24,8.24,0,0,1,2.54,2.93A9.42,9.42,0,0,1,316.1,398.37Z"/><path class="cls-2" d="M335.12,395.33h-6.3V405a4.5,4.5,0,0,1-1,3.13,3.44,3.44,0,0,1-5,0,4.46,4.46,0,0,1-.95-3.1V378.81a4.3,4.3,0,0,1,1-3.24,4.74,4.74,0,0,1,3.31-1h8.83a23.3,23.3,0,0,1,6,.6,9.06,9.06,0,0,1,3.6,1.92,8.71,8.71,0,0,1,2.3,3.29,11.51,11.51,0,0,1,.79,4.38c0,3.46-1.06,6.08-3.2,7.87S339.34,395.33,335.12,395.33Zm-1.67-15.57h-4.63v10.38h4.63a13.88,13.88,0,0,0,4.07-.51A4.73,4.73,0,0,0,340,388a5,5,0,0,0,.86-3,5.14,5.14,0,0,0-1.32-3.66C338.56,380.27,336.53,379.76,333.45,379.76Z"/><path class="cls-2" d="M376,379.9h-15.5v8.34h14.27a3.4,3.4,0,0,1,2.35.71,2.39,2.39,0,0,1,.78,1.87,2.47,2.47,0,0,1-.77,1.88,3.29,3.29,0,0,1-2.36.73H360.47v9.66h16a3.54,3.54,0,0,1,2.45.76,2.61,2.61,0,0,1,.82,2,2.55,2.55,0,0,1-.82,2,3.54,3.54,0,0,1-2.45.75H357.8a4.44,4.44,0,0,1-3.23-1,4.49,4.49,0,0,1-1-3.22V378.81a5.66,5.66,0,0,1,.44-2.42,2.69,2.69,0,0,1,1.38-1.36,5.68,5.68,0,0,1,2.39-.43H376a3.51,3.51,0,0,1,2.44.73,2.43,2.43,0,0,1,.8,1.91,2.46,2.46,0,0,1-.8,1.93A3.51,3.51,0,0,1,376,379.9Z"/><path class="cls-2" d="M392,378.19v24.72h13.95a3.69,3.69,0,0,1,2.56.81,2.65,2.65,0,0,1,.89,2,2.61,2.61,0,0,1-.88,2,3.83,3.83,0,0,1-2.57.77H389.31a3.59,3.59,0,0,1-4.21-4.21V378.19a4.59,4.59,0,0,1,.93-3.13,3.19,3.19,0,0,1,2.47-1,3.29,3.29,0,0,1,2.52,1A4.47,4.47,0,0,1,392,378.19Z"/></g></g></svg>